<svg id="Layer_1" data-name="Layer 1" xmlns="http://www.w3.org/2000/svg" viewBox="0 0 1080 1080"><defs><style>.cls-1{fill:#606160;}.cls-2{fill:#056939;}.cls-3{fill:#019544;}.cls-4{fill:#fff;}</style></defs><path class="cls-1" d="M352.66,647.65a1,1,0,0,1-1.15-1.15v-34a1.15,1.15,0,0,1,2.3,0v3a7.36,7.36,0,0,1,3.51-3.12,15.41,15.41,0,0,1,6.22-1h2.08c3.36,0,5.79.76,7.32,2.29s2.3,4,2.3,7.32v6.1q0,5-2.3,7.32c-1.53,1.52-4,2.29-7.32,2.29H353.81v9.83A1,1,0,0,1,352.66,647.65Zm1.15-13.29h11.81q4,0,5.68-1.63t1.63-5.67V621q0-4-1.63-5.67t-5.68-1.64h-2.08q-4.69,0-7,1.55a6.46,6.46,0,0,0-2.72,4.77Z"/><path class="cls-1" d="M385.73,636.67a1,1,0,0,1-1.15-1.15v-35.6a1.15,1.15,0,0,1,2.3,0v15.77q2.5-4.35,9.72-4.34h1.54q5,0,7.32,2.29t2.3,7.32v14.56a1.16,1.16,0,0,1-2.31,0V621q0-4-1.64-5.67t-5.67-1.64H396.6a13.14,13.14,0,0,0-7,1.55,6,6,0,0,0-2.72,4.82v15.5A1,1,0,0,1,385.73,636.67Z"/><path class="cls-1" d="M423.47,636.67q-4.16,0-6.06-1.91t-1.91-6.06q0-4.17,1.92-6.09t6.05-1.93h12.79c0-2.58-.57-4.39-1.67-5.45s-3-1.58-5.63-1.58h-3.19a12.66,12.66,0,0,0-5.44.87,3.74,3.74,0,0,0-2,2.92,1.51,1.51,0,0,1-.34.81,1,1,0,0,1-.81.29,1.15,1.15,0,0,1-.88-.31,1.21,1.21,0,0,1-.28-.9,5.4,5.4,0,0,1,2.65-4.56c1.63-.95,4-1.42,7.13-1.42H429q5,0,7.32,2.29t2.29,7.32v14.56a1.16,1.16,0,0,1-2.31,0v-3.25q-2.52,4.4-9.72,4.4Zm0-2.31h3.07a16.76,16.76,0,0,0,5-.66,7,7,0,0,0,3.32-2.09,6.35,6.35,0,0,0,1.41-3.73V623H423.47c-2.11,0-3.58.42-4.41,1.25s-1.25,2.32-1.25,4.46.41,3.58,1.25,4.41S421.36,634.36,423.47,634.36Z"/><path class="cls-1" d="M449.12,636.67a1,1,0,0,1-1.16-1.15v-23a1.16,1.16,0,0,1,2.31,0v4.92a9.88,9.88,0,0,1,4.13-4.51,13.28,13.28,0,0,1,6.64-1.56,1.15,1.15,0,0,1,0,2.3q-4.95,0-7.69,2.37a9.52,9.52,0,0,0-3.08,6.86v12.64A1,1,0,0,1,449.12,636.67Z"/><path class="cls-1" d="M496.36,611.29q4.17,0,6,2.18t1.78,7.21v14.89a1.16,1.16,0,0,1-2.31,0V620.68c0-2.52-.41-4.34-1.25-5.43s-2.22-1.65-4.18-1.65h-2.31q-3.74,0-5.36,1.65c-1.08,1.09-1.62,2.91-1.62,5.43v14.89a1.15,1.15,0,1,1-2.3,0V620.68c0-2.52-.42-4.34-1.25-5.43s-2.23-1.65-4.19-1.65H477q-3.74,0-5.35,1.65c-1.09,1.09-1.63,2.91-1.63,5.43v14.89a1.15,1.15,0,1,1-2.3,0V612.5a1.15,1.15,0,0,1,2.3,0v2.42a6.94,6.94,0,0,1,2.77-2.79,9.16,9.16,0,0,1,4.21-.84h2.31a8.4,8.4,0,0,1,4.38,1,6.93,6.93,0,0,1,2.7,3.35,7.16,7.16,0,0,1,2.92-3.35,9.55,9.55,0,0,1,4.72-1Z"/><path class="cls-1" d="M519.81,636.67q-4.14,0-6-1.91c-1.28-1.27-1.91-3.29-1.91-6.06s.64-4.81,1.92-6.09,3.29-1.93,6-1.93h12.8c0-2.58-.58-4.39-1.68-5.45s-3-1.58-5.63-1.58h-3.18a12.66,12.66,0,0,0-5.44.87,3.72,3.72,0,0,0-2,2.92,1.52,1.52,0,0,1-.35.81,1,1,0,0,1-.81.29,1.14,1.14,0,0,1-.87-.31,1.13,1.13,0,0,1-.28-.9,5.4,5.4,0,0,1,2.65-4.56q2.43-1.42,7.13-1.42h3.18q5,0,7.32,2.29t2.3,7.32v14.56a1.16,1.16,0,0,1-2.31,0v-3.25c-1.68,2.93-4.93,4.4-9.72,4.4Zm0-2.31h3.08a16.69,16.69,0,0,0,5-.66,7,7,0,0,0,3.33-2.09,6.41,6.41,0,0,0,1.41-3.73V623h-12.8c-2.1,0-3.57.42-4.41,1.25s-1.25,2.32-1.25,4.46.42,3.58,1.25,4.41S517.71,634.36,519.81,634.36Z"/><path class="cls-1" d="M712.76,535V553a33.7,33.7,0,0,1-33.7,33.71H321.53V527.44a33.69,33.69,0,0,1,33.7-33.7h315a62.5,62.5,0,0,0,6.5,14.17,61.32,61.32,0,0,0,12.16,14.22s0,0,0,0l4.73,4.07c.35.24.67.5,1,.73A49.21,49.21,0,0,0,712.76,535"/><path class="cls-2" d="M694.68,527l-.09.07-.93-.8c.34.24.67.5,1,.73"/><path class="cls-1" d="M710.16,444.32a52,52,0,0,1-14.89,70.36,51.38,51.38,0,0,1-10.2-11.94,52,52,0,0,1,14.87-70.39,51.34,51.34,0,0,1,10.22,12"/><path class="cls-3" d="M693.66,526.23a47.55,47.55,0,0,1-4.73-4.07Z"/><path class="cls-1" d="M758.47,506.85a40.45,40.45,0,0,1-55.06,14.06A61.12,61.12,0,0,0,723.29,495a40.48,40.48,0,0,1,35.18,11.88"/><path class="cls-4" d="M359.74,544.36a5.44,5.44,0,0,1-.93-1.16,8.28,8.28,0,0,1-.49-1h-.22v31.29h-6.59V507.17h6.59v31.48h.22a5.9,5.9,0,0,1,1.42-2.2l25-28.27a3.67,3.67,0,0,1,2.86-1.21h3l-25.35,28.27c-1.32,1.32-2,2.35-2,3.08s.65,1.76,2,3.07l29.92,32.06h-7.36a3.91,3.91,0,0,1-2.85-1.2Z"/><path class="cls-4" d="M405.56,531.73l-3.85-4.28a26.63,26.63,0,0,1,9.06-5.93,28.89,28.89,0,0,1,10.82-2.09c5.19,0,9.37,1.43,12.51,4.29s4.72,6.69,4.72,11.53v38.2h-.21L433.88,571a3,3,0,0,1-1.64-2.86v-5.49H432q-9.22,10.77-20.1,10.76-6.15,0-9.82-3.07a10.15,10.15,0,0,1-3.68-8.23,14.25,14.25,0,0,1,2.25-7.75,21,21,0,0,1,6.2-6.2,32.08,32.08,0,0,1,9.34-4.12,44,44,0,0,1,11.64-1.48h4.39v-8.78c0-3.74-1-6.7-2.86-8.9a9.78,9.78,0,0,0-7.79-3.29q-8.79,0-16,10.1m26.68,27.78V544.8H430a35.62,35.62,0,0,0-9.72,1.26,27.47,27.47,0,0,0-7.74,3.46,17.37,17.37,0,0,0-5.16,5.16,12,12,0,0,0-1.86,6.48,7.78,7.78,0,0,0,2.14,5.76,7.61,7.61,0,0,0,5.65,2.14,21.87,21.87,0,0,0,10.1-2.47,29,29,0,0,0,8.79-7.08"/><path class="cls-4" d="M460.56,572.8h-6.37V519.43h.22l4.51,2.42a3,3,0,0,1,1.64,2.85v8.35h.22q10.32-13.62,20.86-13.62a13.71,13.71,0,0,1,9.78,3.52q3.72,3.51,4.39,9.88H496A37.54,37.54,0,0,1,506.18,523a20.56,20.56,0,0,1,11-3.52q6.69,0,10.59,4.18t3.9,11.42V572.8h-6.37V535.14q0-5.61-2.52-8.68a8.72,8.72,0,0,0-7.14-3.07q-10.87,0-19.54,13.39v36h-6.37V535.14q0-5.61-2.53-8.68a8.7,8.7,0,0,0-7.13-3.07q-10.44,0-19.55,13.39Z"/><path class="cls-4" d="M553.45,572.8h-6.37V519.43h.22l4.5,2.42a3,3,0,0,1,1.65,2.85v8.35h.22q10.32-13.62,20.86-13.62a13.72,13.72,0,0,1,9.78,3.52q3.72,3.51,4.39,9.88h.22A37.4,37.4,0,0,1,599.07,523a20.56,20.56,0,0,1,11-3.52q6.69,0,10.59,4.18T624.6,535V572.8h-6.37V535.14q0-5.61-2.52-8.68a8.73,8.73,0,0,0-7.14-3.07q-10.87,0-19.54,13.39v36h-6.37V535.14c0-3.74-.85-6.63-2.53-8.68a8.71,8.71,0,0,0-7.14-3.07q-10.43,0-19.54,13.39Z"/><path class="cls-4" d="M644.36,531.73l-3.84-4.28a26.63,26.63,0,0,1,9.06-5.93,28.88,28.88,0,0,1,10.81-2.09q7.8,0,12.52,4.29t4.72,11.53v38.2h-.22L672.69,571a3,3,0,0,1-1.65-2.86v-5.49h-.22q-9.21,10.77-20.09,10.76-6.15,0-9.83-3.07a10.18,10.18,0,0,1-3.67-8.23,14.25,14.25,0,0,1,2.25-7.75,21,21,0,0,1,6.2-6.2,32.14,32.14,0,0,1,9.33-4.12,44.06,44.06,0,0,1,11.64-1.48H671v-8.78c0-3.74-.95-6.7-2.85-8.9a9.79,9.79,0,0,0-7.8-3.29q-8.77,0-16,10.1M671,559.51V544.8h-2.19a35.56,35.56,0,0,0-9.72,1.26,27.47,27.47,0,0,0-7.74,3.46,17.14,17.14,0,0,0-5.16,5.16,11.9,11.9,0,0,0-1.87,6.48,7.79,7.79,0,0,0,2.15,5.76,7.61,7.61,0,0,0,5.65,2.14,21.87,21.87,0,0,0,10.1-2.47,28.84,28.84,0,0,0,8.78-7.08"/></svg>