<svg id="Layer_1" data-name="Layer 1" xmlns="http://www.w3.org/2000/svg" viewBox="0 0 1080 1080"><defs><style>.cls-1{fill:#056939;}.cls-2{fill:#10a651;}.cls-3{fill:#019544;}.cls-4{fill:#fff;}</style></defs><path class="cls-1" d="M352.66,647.38a1,1,0,0,1-1.15-1.15v-34a1.15,1.15,0,1,1,2.3,0v3a7.26,7.26,0,0,1,3.51-3.12,15.23,15.23,0,0,1,6.22-1.06h2.08c3.36,0,5.79.77,7.32,2.29s2.3,4,2.3,7.32v6.1q0,5-2.3,7.32c-1.53,1.53-4,2.29-7.32,2.29H353.81v9.84A1,1,0,0,1,352.66,647.38Zm1.15-13.29h11.81q4,0,5.68-1.64t1.63-5.67v-6.1q0-4-1.63-5.67t-5.68-1.63h-2.08q-4.69,0-7,1.55a6.44,6.44,0,0,0-2.72,4.77Z"/><path class="cls-1" d="M385.73,636.39a1,1,0,0,1-1.15-1.15V599.65a1.15,1.15,0,1,1,2.3,0v15.76q2.5-4.33,9.72-4.34h1.54c3.35,0,5.79.77,7.32,2.29s2.3,4,2.3,7.32v14.56a1.16,1.16,0,0,1-2.31,0V620.68q0-4-1.64-5.67t-5.67-1.63H396.6a13.14,13.14,0,0,0-7,1.55,5.94,5.94,0,0,0-2.72,4.82v15.49A1,1,0,0,1,385.73,636.39Z"/><path class="cls-1" d="M423.47,636.39c-2.77,0-4.79-.63-6.06-1.91s-1.91-3.29-1.91-6.05.64-4.82,1.92-6.1,3.3-1.92,6.05-1.92h12.79q0-3.87-1.67-5.45c-1.1-1.06-3-1.58-5.63-1.58h-3.19a12.84,12.84,0,0,0-5.44.86,3.76,3.76,0,0,0-2,2.93,1.51,1.51,0,0,1-.34.81,1.07,1.07,0,0,1-.81.29,1.16,1.16,0,0,1-.88-.32,1.19,1.19,0,0,1-.28-.89,5.37,5.37,0,0,1,2.65-4.56,14.36,14.36,0,0,1,7.13-1.43H429c3.35,0,5.79.77,7.32,2.29s2.29,4,2.29,7.32v14.56a1.16,1.16,0,0,1-2.31,0V632q-2.52,4.39-9.72,4.39Zm0-2.3h3.07a16.76,16.76,0,0,0,5-.66,7.05,7.05,0,0,0,3.32-2.09,6.38,6.38,0,0,0,1.41-3.74v-4.88H423.47c-2.11,0-3.58.41-4.41,1.25s-1.25,2.32-1.25,4.46.41,3.57,1.25,4.41S421.36,634.09,423.47,634.09Z"/><path class="cls-1" d="M449.12,636.39a1,1,0,0,1-1.16-1.15v-23a1.16,1.16,0,1,1,2.31,0v4.91a9.81,9.81,0,0,1,4.13-4.5,13.18,13.18,0,0,1,6.64-1.57,1.16,1.16,0,0,1,0,2.31q-4.95,0-7.69,2.36a9.55,9.55,0,0,0-3.08,6.87v12.63A1,1,0,0,1,449.12,636.39Z"/><path class="cls-1" d="M496.36,611c2.78,0,4.77.72,6,2.18s1.78,3.86,1.78,7.21V635.3a1.16,1.16,0,0,1-2.31,0V620.41c0-2.53-.41-4.34-1.25-5.44s-2.22-1.65-4.18-1.65h-2.31q-3.74,0-5.36,1.65t-1.62,5.44V635.3a1.15,1.15,0,0,1-2.3,0V620.41q0-3.79-1.25-5.44c-.84-1.1-2.23-1.65-4.19-1.65H477q-3.74,0-5.35,1.65T470,620.41V635.3a1.15,1.15,0,0,1-2.3,0V612.23a1.15,1.15,0,1,1,2.3,0v2.41a6.94,6.94,0,0,1,2.77-2.79A9.3,9.3,0,0,1,477,611h2.31a8.5,8.5,0,0,1,4.38,1,7,7,0,0,1,2.7,3.35,7.26,7.26,0,0,1,2.92-3.35,9.66,9.66,0,0,1,4.72-1Z"/><path class="cls-1" d="M519.81,636.39c-2.76,0-4.78-.63-6-1.91s-1.91-3.29-1.91-6.05.64-4.82,1.92-6.1,3.29-1.92,6-1.92h12.8q0-3.87-1.68-5.45c-1.09-1.06-3-1.58-5.63-1.58h-3.18a12.84,12.84,0,0,0-5.44.86,3.74,3.74,0,0,0-2,2.93,1.52,1.52,0,0,1-.35.81,1,1,0,0,1-.81.29,1.15,1.15,0,0,1-.87-.32,1.12,1.12,0,0,1-.28-.89A5.37,5.37,0,0,1,515,612.5q2.43-1.43,7.13-1.43h3.18c3.35,0,5.79.77,7.32,2.29s2.3,4,2.3,7.32v14.56a1.16,1.16,0,0,1-2.31,0V632c-1.68,2.93-4.93,4.39-9.72,4.39Zm0-2.3h3.08a16.69,16.69,0,0,0,5-.66,7.09,7.09,0,0,0,3.33-2.09,6.44,6.44,0,0,0,1.41-3.74v-4.88h-12.8c-2.1,0-3.57.41-4.41,1.25s-1.25,2.32-1.25,4.46.42,3.57,1.25,4.41S517.71,634.09,519.81,634.09Z"/><path class="cls-2" d="M712.76,534.76V552.7a33.7,33.7,0,0,1-33.7,33.71H321.53V527.17a33.7,33.7,0,0,1,33.7-33.71h315a62.5,62.5,0,0,0,6.5,14.17,60.91,60.91,0,0,0,12.16,14.22s0,0,0,0l4.73,4.07c.35.24.67.5,1,.72a49.24,49.24,0,0,0,18.08,8.08"/><path class="cls-1" d="M694.68,526.68l-.09.07-.93-.79c.34.24.67.5,1,.72"/><path class="cls-1" d="M710.16,444a52,52,0,0,1-14.89,70.36,51.17,51.17,0,0,1-10.2-11.94,52,52,0,0,1,14.87-70.39,51.75,51.75,0,0,1,10.22,12"/><path class="cls-3" d="M693.66,526a47.55,47.55,0,0,1-4.73-4.07Z"/><path class="cls-3" d="M758.47,506.58a40.45,40.45,0,0,1-55.06,14.06,61.15,61.15,0,0,0,19.88-25.95,40.49,40.49,0,0,1,35.18,11.89"/><path class="cls-4" d="M359.74,544.08a5.42,5.42,0,0,1-.93-1.15,9,9,0,0,1-.49-1h-.22v31.29h-6.59V506.89h6.59v31.48h.22a5.94,5.94,0,0,1,1.42-2.19l25-28.28a3.71,3.71,0,0,1,2.86-1.21h3L365.23,535c-1.32,1.32-2,2.34-2,3.07s.65,1.76,2,3.08l29.92,32.06h-7.36a3.88,3.88,0,0,1-2.85-1.21Z"/><path class="cls-4" d="M405.56,531.46l-3.85-4.29a26.61,26.61,0,0,1,9.06-5.92,28.89,28.89,0,0,1,10.82-2.09c5.19,0,9.37,1.43,12.51,4.28s4.72,6.7,4.72,11.53v38.21h-.21l-4.73-2.42a3,3,0,0,1-1.64-2.85v-5.49H432q-9.22,10.76-20.1,10.76-6.15,0-9.82-3.07a10.17,10.17,0,0,1-3.68-8.24,14.24,14.24,0,0,1,2.25-7.74,20.81,20.81,0,0,1,6.2-6.2,32.08,32.08,0,0,1,9.34-4.12,43.55,43.55,0,0,1,11.64-1.48h4.39v-8.79c0-3.73-1-6.7-2.86-8.89a9.75,9.75,0,0,0-7.79-3.29q-8.79,0-16,10.1m26.68,27.78V544.52H430a35.62,35.62,0,0,0-9.72,1.26,27.75,27.75,0,0,0-7.74,3.46,17.61,17.61,0,0,0-5.16,5.16,12,12,0,0,0-1.86,6.48,7.79,7.79,0,0,0,2.14,5.77,7.65,7.65,0,0,0,5.65,2.14,22,22,0,0,0,10.1-2.47,29.14,29.14,0,0,0,8.79-7.08"/><path class="cls-4" d="M460.56,572.52h-6.37V519.16h.22l4.51,2.41a3,3,0,0,1,1.64,2.86v8.34h.22q10.32-13.6,20.86-13.61a13.7,13.7,0,0,1,9.78,3.51q3.72,3.52,4.39,9.88H496a37.69,37.69,0,0,1,10.15-9.88,20.54,20.54,0,0,1,11-3.51q6.69,0,10.59,4.17t3.9,11.42v37.77h-6.37V534.86q0-5.6-2.52-8.67a8.73,8.73,0,0,0-7.14-3.08q-10.87,0-19.54,13.4v36h-6.37V534.86q0-5.6-2.53-8.67a8.71,8.71,0,0,0-7.13-3.08q-10.44,0-19.55,13.4Z"/><path class="cls-4" d="M553.45,572.52h-6.37V519.16h.22l4.5,2.41a3,3,0,0,1,1.65,2.86v8.34h.22q10.32-13.6,20.86-13.61a13.72,13.72,0,0,1,9.78,3.51q3.72,3.52,4.39,9.88h.22a37.54,37.54,0,0,1,10.15-9.88,20.54,20.54,0,0,1,11-3.51q6.69,0,10.59,4.17t3.9,11.42v37.77h-6.37V534.86q0-5.6-2.52-8.67a8.74,8.74,0,0,0-7.14-3.08q-10.87,0-19.54,13.4v36h-6.37V534.86c0-3.73-.85-6.62-2.53-8.67a8.71,8.71,0,0,0-7.14-3.08q-10.43,0-19.54,13.4Z"/><path class="cls-4" d="M644.36,531.46l-3.84-4.29a26.61,26.61,0,0,1,9.06-5.92,28.88,28.88,0,0,1,10.81-2.09q7.8,0,12.52,4.28T677.63,535v38.21h-.22l-4.72-2.42a3,3,0,0,1-1.65-2.85v-5.49h-.22q-9.21,10.76-20.09,10.76-6.15,0-9.83-3.07a10.2,10.2,0,0,1-3.67-8.24,14.24,14.24,0,0,1,2.25-7.74,20.81,20.81,0,0,1,6.2-6.2,32.14,32.14,0,0,1,9.33-4.12,43.65,43.65,0,0,1,11.64-1.48H671v-8.79c0-3.73-.95-6.7-2.85-8.89a9.76,9.76,0,0,0-7.8-3.29q-8.77,0-16,10.1M671,559.24V544.52h-2.19a35.56,35.56,0,0,0-9.72,1.26,27.75,27.75,0,0,0-7.74,3.46,17.37,17.37,0,0,0-5.16,5.16,11.9,11.9,0,0,0-1.87,6.48,7.79,7.79,0,0,0,2.15,5.77,7.65,7.65,0,0,0,5.65,2.14,22,22,0,0,0,10.1-2.47,29,29,0,0,0,8.78-7.08"/></svg>