<svg version="1.1" id="Layer_1" xmlns="http://www.w3.org/2000/svg" xmlns:xlink="http://www.w3.org/1999/xlink" x="0px" y="0px"
	 width="100%" viewBox="0 0 512 512" enable-background="new 0 0 512 512" xml:space="preserve">
<path fill="#FFFFFF" opacity="1.000000" stroke="none" 
	d="
M225.000000,513.000000 
	C150.018173,513.000000 75.536354,513.000000 1.027263,513.000000 
	C1.027263,342.393158 1.027263,171.786285 1.027263,1.089717 
	C171.565186,1.089717 342.130432,1.089717 512.847839,1.089717 
	C512.847839,171.666565 512.847839,342.333252 512.847839,513.000000 
	C417.119598,513.000000 321.309784,513.000000 225.000000,513.000000 
M180.499908,357.300995 
	C214.330093,357.300629 248.160431,357.365814 281.990387,357.279327 
	C309.630585,357.208679 333.634094,339.000580 338.935242,311.850555 
	C341.768890,297.337860 340.905548,282.103302 341.684509,267.678864 
	C334.550507,264.969604 328.210938,263.248322 322.519501,260.283051 
	C296.502777,246.728287 278.116364,226.237183 267.819305,198.641785 
	C266.988342,196.414871 266.727783,194.078445 263.046539,194.125488 
	C244.218140,194.366074 225.372574,193.815170 206.556564,194.357559 
	C172.477737,195.339966 148.057327,220.978027 148.056717,255.082062 
	C148.056122,287.245697 148.056625,319.409363 148.056671,351.572998 
	C148.056671,353.356262 148.056686,355.139526 148.056686,357.301086 
	C158.895264,357.301086 169.197571,357.301086 180.499908,357.300995 
M297.864990,100.369278 
	C263.391663,145.055695 279.723267,202.462158 310.664581,225.212601 
	C363.212128,188.932205 360.453064,114.649384 317.107147,80.927528 
	C310.902802,87.146309 304.593079,93.470695 297.864990,100.369278 
M325.774231,235.377472 
	C326.628296,236.497391 327.241241,238.118362 328.372345,238.662735 
	C348.204102,248.207489 368.364807,248.906555 388.653534,240.252182 
	C402.494324,234.348221 413.175873,224.752335 420.962219,211.982315 
	C406.831482,196.593704 383.182617,187.891876 363.286133,190.428894 
	C360.619415,190.768921 358.958313,191.547440 357.750977,194.303314 
	C350.683899,210.434341 340.125549,223.947861 325.774231,235.377472 
z"/>
<path fill="#01A650" opacity="1.000000" stroke="none" 
	d="
M179.999908,357.301025 
	C169.197571,357.301086 158.895264,357.301086 148.056686,357.301086 
	C148.056686,355.139526 148.056671,353.356262 148.056671,351.572998 
	C148.056625,319.409363 148.056122,287.245697 148.056717,255.082062 
	C148.057327,220.978027 172.477737,195.339966 206.556564,194.357559 
	C225.372574,193.815170 244.218140,194.366074 263.046539,194.125488 
	C266.727783,194.078445 266.988342,196.414871 267.819305,198.641785 
	C278.116364,226.237183 296.502777,246.728287 322.519501,260.283051 
	C328.210938,263.248322 334.550507,264.969604 341.684509,267.678864 
	C340.905548,282.103302 341.768890,297.337860 338.935242,311.850555 
	C333.634094,339.000580 309.630585,357.208679 281.990387,357.279327 
	C248.160431,357.365814 214.330093,357.300629 179.999908,357.301025 
M195.943542,292.500000 
	C195.943542,307.907104 195.943542,323.314178 195.943542,338.516174 
	C200.320404,338.516174 203.886108,338.516174 207.994720,338.516174 
	C207.994720,320.785583 207.994720,303.447388 207.994720,285.249115 
	C222.290802,301.067383 236.424744,315.692902 249.287048,331.362274 
	C255.792603,339.287598 263.064270,339.573547 272.158295,338.518402 
	C270.744995,336.897675 269.715149,335.644867 268.611053,334.461365 
	C252.584366,317.281830 236.545593,300.113586 220.514755,282.937958 
	C215.550278,277.618958 215.581924,276.965424 220.546066,271.436462 
	C234.238998,256.185547 247.915039,240.919434 261.582397,225.645584 
	C262.416168,224.713791 263.116608,223.662674 264.028961,222.471390 
	C258.695282,221.291870 255.175140,223.016785 251.889618,226.806381 
	C238.464310,242.291336 224.788025,257.558685 211.197357,272.900146 
	C210.287643,273.927063 209.321121,274.903595 207.553711,276.783508 
	C207.553711,258.024719 207.553711,240.475693 207.553711,222.792465 
	C203.459000,222.792465 199.860321,222.792465 195.943527,222.792465 
	C195.943527,245.877396 195.943527,268.688690 195.943542,292.500000 
z"/>
<path fill="#026A39" opacity="1.000000" stroke="none" 
	d="
M298.074158,100.082184 
	C304.593079,93.470695 310.902802,87.146309 317.107147,80.927528 
	C360.453064,114.649384 363.212128,188.932205 310.664581,225.212601 
	C279.723267,202.462158 263.391663,145.055695 298.074158,100.082184 
z"/>
<path fill="#029449" opacity="1.000000" stroke="none" 
	d="
M326.058533,235.152802 
	C340.125549,223.947861 350.683899,210.434341 357.750977,194.303314 
	C358.958313,191.547440 360.619415,190.768921 363.286133,190.428894 
	C383.182617,187.891876 406.831482,196.593704 420.962219,211.982315 
	C413.175873,224.752335 402.494324,234.348221 388.653534,240.252182 
	C368.364807,248.906555 348.204102,248.207489 328.372345,238.662735 
	C327.241241,238.118362 326.628296,236.497391 326.058533,235.152802 
z"/>
<path fill="#F6FCF9" opacity="1.000000" stroke="none" 
	d="
M195.943542,292.000000 
	C195.943527,268.688690 195.943527,245.877396 195.943527,222.792465 
	C199.860321,222.792465 203.459000,222.792465 207.553711,222.792465 
	C207.553711,240.475693 207.553711,258.024719 207.553711,276.783508 
	C209.321121,274.903595 210.287643,273.927063 211.197357,272.900146 
	C224.788025,257.558685 238.464310,242.291336 251.889618,226.806381 
	C255.175140,223.016785 258.695282,221.291870 264.028961,222.471390 
	C263.116608,223.662674 262.416168,224.713791 261.582397,225.645584 
	C247.915039,240.919434 234.238998,256.185547 220.546066,271.436462 
	C215.581924,276.965424 215.550278,277.618958 220.514755,282.937958 
	C236.545593,300.113586 252.584366,317.281830 268.611053,334.461365 
	C269.715149,335.644867 270.744995,336.897675 272.158295,338.518402 
	C263.064270,339.573547 255.792603,339.287598 249.287048,331.362274 
	C236.424744,315.692902 222.290802,301.067383 207.994720,285.249115 
	C207.994720,303.447388 207.994720,320.785583 207.994720,338.516174 
	C203.886108,338.516174 200.320404,338.516174 195.943542,338.516174 
	C195.943542,323.314178 195.943542,307.907104 195.943542,292.000000 
z"/>
</svg>